<?xml version="1.0" encoding="utf-8"?>
<!-- Generator: Adobe Illustrator 16.0.0, SVG Export Plug-In . SVG Version: 6.00 Build 0)  -->
<!DOCTYPE svg PUBLIC "-//W3C//DTD SVG 1.1//EN" "http://www.w3.org/Graphics/SVG/1.1/DTD/svg11.dtd">
<svg version="1.1" id="Capa_1" xmlns="http://www.w3.org/2000/svg" xmlns:xlink="http://www.w3.org/1999/xlink" x="0px" y="0px"
	 width="33.559px" height="33.559px" viewBox="0 0 33.559 33.559" enable-background="new 0 0 33.559 33.559" xml:space="preserve">
<g>
	<path fill="#D8DFE5" d="M7.564,8.201C7.349,8.029,7.313,7.715,7.486,7.498c1.104-1.384,2.534-2.522,4.134-3.294
		c0.245-0.117,0.548-0.018,0.667,0.232c0.12,0.249,0.017,0.548-0.231,0.667c-1.466,0.707-2.773,1.75-3.787,3.019
		C8.17,8.246,8.025,8.311,7.877,8.311C7.767,8.312,7.657,8.276,7.564,8.201z M5.795,11.887c-0.278-0.063-0.539,0.107-0.6,0.376
		c-0.199,0.873-0.3,1.765-0.3,2.654c0.001,0.885,0.102,1.771,0.298,2.632c0.053,0.229,0.259,0.391,0.486,0.391
		c0.036,0,0.073-0.004,0.11-0.016c0.271-0.062,0.438-0.328,0.377-0.6c-0.181-0.789-0.271-1.6-0.271-2.408
		c0-0.814,0.093-1.633,0.273-2.434C6.231,12.217,6.062,11.947,5.795,11.887z M17.802,13.979c0.231-0.081,0.409-0.204,0.524-0.368
		c0.119-0.164,0.18-0.354,0.18-0.568c0-0.226-0.059-0.415-0.168-0.573c-0.11-0.159-0.272-0.271-0.483-0.338
		c-0.21-0.067-0.59-0.103-1.135-0.103h-0.934v2.073h0.934C17.209,14.1,17.568,14.06,17.802,13.979z M27.386,12.47
		c0.053,0.23,0.258,0.388,0.483,0.388c0.037,0,0.074-0.004,0.113-0.013c0.271-0.062,0.438-0.331,0.375-0.601
		c-0.396-1.726-1.193-3.369-2.303-4.758c-0.173-0.215-0.486-0.251-0.701-0.078c-0.217,0.172-0.252,0.486-0.08,0.702
		C26.292,9.383,27.021,10.89,27.386,12.47z M7.181,28.17c-0.314,0-0.605,0.238-0.683,0.576c-0.018,0.067-0.024,0.139-0.024,0.215
		v0.553c0,0.076,0.009,0.146,0.024,0.207c0.075,0.314,0.344,0.555,0.683,0.555c0.5,0,0.808-0.385,0.808-1.061
		C7.989,28.629,7.728,28.17,7.181,28.17z M16.77,4.024c0.82,0,1.646,0.095,2.447,0.28c0.789,0.181,1.554,0.448,2.271,0.793
		c0.068,0.034,0.145,0.049,0.215,0.049c0.188,0,0.365-0.104,0.451-0.284c0.119-0.249,0.016-0.548-0.232-0.667
		c-0.786-0.377-1.62-0.669-2.479-0.866c-0.877-0.202-1.775-0.307-2.673-0.307c-0.276,0-0.5,0.225-0.5,0.5
		C16.27,3.798,16.494,4.024,16.77,4.024z M27.984,16.952c-0.269-0.062-0.541,0.126-0.603,0.396c-0.37,1.611-1.079,3.078-2.104,4.359
		c-0.172,0.215-0.139,0.528,0.078,0.701c0.092,0.073,0.201,0.11,0.312,0.11c0.146,0,0.291-0.063,0.392-0.188
		c1.121-1.396,1.895-3,2.301-4.765l0.008-0.041C28.425,17.26,28.253,17.014,27.984,16.952z M18.423,17.28
		c0.166-0.209,0.25-0.464,0.25-0.761c0-0.252-0.061-0.464-0.178-0.641c-0.117-0.174-0.295-0.308-0.529-0.396
		c-0.233-0.089-0.595-0.134-1.077-0.134h-1.101v1.841c0.004,0.261,0.015,0.413,0.03,0.458c0.021,0.058,0.054,0.097,0.103,0.117
		c0.045,0.021,0.173,0.035,0.379,0.035h0.621c0.359,0,0.656-0.035,0.896-0.104C18.054,17.633,18.257,17.493,18.423,17.28z
		 M31.802,28.41l1.756,4.118H0l2.631-4.008L0,24.414h6.691c-2.346-2.486-3.793-5.826-3.793-9.506c0-7.652,6.227-13.88,13.88-13.88
		s13.88,6.228,13.88,13.88c0,3.68-1.447,7.02-3.793,9.506h6.691L31.802,28.41z M9.179,29.168c0.009-1.152-0.652-1.896-1.554-1.896
		c-0.521,0-0.912,0.207-1.137,0.529H6.473v-2.143H5.305v4.332c0,0.422-0.017,0.875-0.03,1.122h0.991l0.046-0.522h0.017
		c0.269,0.445,0.69,0.606,1.129,0.606C8.319,31.195,9.179,30.52,9.179,29.168z M11.072,27.355H9.904v3.756h1.168V27.355z
		 M11.111,26.311c-0.008-0.34-0.247-0.594-0.622-0.594c-0.377,0-0.623,0.252-0.614,0.594c-0.009,0.32,0.237,0.58,0.605,0.58
		C10.864,26.895,11.111,26.633,11.111,26.311z M11.511,24.414h1.689c-3.847-1.449-6.589-5.152-6.589-9.506
		c0-5.613,4.553-10.165,10.165-10.165c5.613,0,10.166,4.552,10.166,10.165c0,4.354-2.742,8.057-6.59,9.506h5.084
		c2.584-2.357,4.219-5.74,4.219-9.506c0-7.103-5.775-12.88-12.879-12.88s-12.88,5.778-12.88,12.88c0,3.766,1.635,7.147,4.22,9.506
		h1.556c-0.812-0.609-1.558-1.31-2.187-2.103c-0.172-0.219-0.136-0.53,0.08-0.703c0.215-0.172,0.53-0.139,0.703,0.08
		C9.154,22.801,10.272,23.725,11.511,24.414z M17.242,19.16v1.399h1.441v-1.521c0.239-0.047,0.453-0.105,0.635-0.179
		c0.496-0.198,0.881-0.487,1.152-0.868c0.27-0.381,0.407-0.796,0.407-1.247c0-0.378-0.092-0.722-0.27-1.026
		c-0.18-0.309-0.422-0.546-0.728-0.716c-0.211-0.123-0.518-0.235-0.914-0.336c0.371-0.126,0.671-0.285,0.896-0.479
		c0.225-0.192,0.398-0.415,0.52-0.667c0.123-0.252,0.183-0.519,0.183-0.799c0-0.386-0.115-0.74-0.344-1.063
		c-0.228-0.322-0.552-0.569-0.976-0.742c-0.164-0.068-0.358-0.118-0.567-0.159v-1.5H17.24v1.398h-0.925V9.257h-1.441v1.397h-2.194
		v1.177h0.336c0.224,0,0.375,0.021,0.452,0.062c0.08,0.041,0.138,0.095,0.169,0.165c0.032,0.068,0.049,0.229,0.049,0.48v4.741
		c0,0.248-0.017,0.408-0.049,0.479c-0.031,0.072-0.089,0.127-0.169,0.166c-0.077,0.039-0.229,0.059-0.452,0.059h-0.336v1.179h2.194
		v1.397h1.441v-1.397h0.817C17.174,19.16,17.207,19.16,17.242,19.16z M14.155,27.355h-0.839v-1.076l-1.146,0.261v0.813h-0.5v0.859
		h0.5v1.537c0,0.526,0.106,0.891,0.321,1.112c0.188,0.191,0.5,0.322,0.876,0.322c0.33,0,0.605-0.039,0.762-0.102l-0.009-0.883
		c-0.085,0.016-0.2,0.03-0.345,0.03c-0.354,0-0.462-0.207-0.462-0.66v-1.358h0.839L14.155,27.355L14.155,27.355z M15.776,29.221
		c-0.008-0.613,0.392-1.053,1.007-1.053c0.307,0,0.514,0.053,0.653,0.115l0.184-0.867c-0.244-0.095-0.584-0.146-0.89-0.146
		c-1.399,0-2.152,0.896-2.152,1.996c0,1.185,0.777,1.922,1.99,1.922c0.446,0,0.837-0.078,1.044-0.17l-0.14-0.86
		c-0.177,0.067-0.393,0.114-0.668,0.114C16.238,30.273,15.776,29.912,15.776,29.221z M21.884,29.191c0-1.129-0.77-1.92-1.92-1.92
		c-1.205,0-2.006,0.773-2.006,1.986s0.847,1.938,1.941,1.938C20.91,31.195,21.884,30.566,21.884,29.191z M23.777,27.355h-1.168
		v3.756h1.168V27.355z M23.816,26.311c-0.008-0.34-0.246-0.594-0.621-0.594c-0.377,0-0.623,0.252-0.617,0.594
		c-0.006,0.32,0.24,0.58,0.607,0.58C23.57,26.895,23.816,26.633,23.816,26.311z M28.281,28.883c0-1.105-0.576-1.611-1.346-1.611
		c-0.621,0-1.006,0.357-1.158,0.599h-0.023l-0.055-0.515h-1.014c0.016,0.33,0.028,0.729,0.028,1.197v2.562h1.17v-2.169
		c0-0.106,0.015-0.225,0.046-0.293c0.075-0.215,0.27-0.438,0.59-0.438c0.424,0,0.594,0.332,0.594,0.813v2.082h1.168V28.883z
		 M19.933,28.098c-0.563,0-0.771,0.576-0.771,1.131c0,0.646,0.271,1.129,0.771,1.129c0.453,0,0.746-0.453,0.746-1.129
		C20.679,28.668,20.464,28.098,19.933,28.098z"/>
</g>
</svg>
